<svg width="12.000000" height="12.000397" viewBox="0 0 12 12.0004" fill="none" xmlns="http://www.w3.org/2000/svg" xmlns:xlink="http://www.w3.org/1999/xlink">
	<desc>
			Created with Pixso.
	</desc>
	<defs/>
	<path id="Vector" d="M11.9683 4.30753C11.8909 4.08072 11.6863 3.92053 11.4475 3.90192L8.02673 3.63013L6.54651 0.353424C6.44995 0.138 6.23572 0 5.99988 0C5.76404 0 5.54993 0.138 5.45325 0.352814L3.97302 3.63013L0.552368 3.90192C0.317749 3.92053 0.115479 4.07474 0.0356445 4.29614C-0.0440674 4.51755 0.0123291 4.76535 0.180908 4.92975L2.70874 7.39404L1.8147 11.2654C1.75952 11.5048 1.8562 11.7538 2.05835 11.8936C2.16162 11.9644 2.2804 12.0004 2.39978 12.0004C2.51562 12.0004 2.63196 11.9668 2.73279 11.8996L5.99988 9.72153L9.26697 11.8996C9.47583 12.0388 9.75 12.0334 9.95398 11.8852C10.1569 11.737 10.2462 11.4772 10.1772 11.236L9.07983 7.39584L11.8015 4.94656C11.9797 4.78577 12.045 4.53494 11.9683 4.30753Z" fill="#FFFFFF" fill-opacity="1.000000" fill-rule="nonzero"/>
</svg>
