<svg width="18.000000" height="20.000000" viewBox="0 0 18 20" fill="none" xmlns="http://www.w3.org/2000/svg" xmlns:xlink="http://www.w3.org/1999/xlink">
	<desc>
			Created with Pixso.
	</desc>
	<defs/>
	<path id="Vector" d="M0 3L0 6L0 12L0 15L0 17C0 19.201 1.79401 20 3 20L18 20L18 18L3.01202 18C2.54999 17.988 2 17.806 2 17C2 16.194 2.54999 16.012 3.01202 16L16 16L17 16L18 16L18 15L18 13L18 2C18 0.897003 17.103 0 16 0L3 0C1.79401 0 0 0.798996 0 3Z" fill="#FFFFFF" fill-opacity="1.000000" fill-rule="nonzero"/>
</svg>
