<svg width="18.707001" height="18.708008" viewBox="0 0 18.707 18.708" fill="none" xmlns="http://www.w3.org/2000/svg" xmlns:xlink="http://www.w3.org/1999/xlink">
	<desc>
			Created with Pixso.
	</desc>
	<defs/>
	<path id="Vector" d="M8 16C9.84601 16 11.543 15.365 12.897 14.312L17.293 18.708L18.707 17.294L14.311 12.898C15.365 11.543 16 9.84599 16 8C16 3.589 12.411 0 8 0C3.58899 0 0 3.589 0 8C0 12.411 3.58899 16 8 16ZM8 2C11.309 2 14 4.69099 14 8C14 11.309 11.309 14 8 14C4.69101 14 2 11.309 2 8C2 4.69099 4.69101 2 8 2Z" fill="#3C2710" fill-opacity="1.000000" fill-rule="nonzero"/>
</svg>
